PathFileType	4	(X/Y/Z)	RBDS023static.trc
DataRate	CameraRate	NumFrames	NumMarkers	Units	OrigDataRate	OrigDataStartFrame	OrigNumFrames
150.000000	150.000000	4	48	mm	150.000000	75	150
Frame#	Time	L.Ankle			L.Ankle.Medial			L.ASIS			L.GTR			L.Heel.Bottom			L.Heel.Lateral			L.Heel.Top			L.HF			L.Iliac.Crest			L.Knee			L.Knee.Medial			L.MT1			L.MT2			L.MT5			L.PSIS			L.Shank.Bottom.Lateral			L.Shank.Bottom.Medial			L.Shank.Top.Lateral			L.Shank.Top.Medial			L.Thigh.Bottom.Lateral			L.Thigh.Bottom.Medial			L.Thigh.Top.Lateral			L.Thigh.Top.Medial			L.TT			R.Ankle			R.Ankle.Medial			R.ASIS			R.GTR			R.Heel.Bottom			R.Heel.Lateral			R.Heel.Top			R.HF			R.Iliac.Crest			R.Knee			R.Knee.Medial			R.MT1			R.MT2			R.MT5			R.PSIS			R.Shank.Bottom.Lateral			R.Shank.Bottom.Medial			R.Shank.Top.Lateral			R.Shank.Top.Medial			R.Thigh.Bottom.Lateral			R.Thigh.Bottom.Medial			R.Thigh.Top.Lateral			R.Thigh.Top.Medial			R.TT			
		X1	Y1	Z1	X2	Y2	Z2	X3	Y3	Z3	X4	Y4	Z4	X5	Y5	Z5	X6	Y6	Z6	X7	Y7	Z7	X8	Y8	Z8	X9	Y9	Z9	X10	Y10	Z10	X11	Y11	Z11	X12	Y12	Z12	X13	Y13	Z13	X14	Y14	Z14	X15	Y15	Z15	X16	Y16	Z16	X17	Y17	Z17	X18	Y18	Z18	X19	Y19	Z19	X20	Y20	Z20	X21	Y21	Z21	X22	Y22	Z22	X23	Y23	Z23	X24	Y24	Z24	X25	Y25	Z25	X26	Y26	Z26	X27	Y27	Z27	X28	Y28	Z28	X29	Y29	Z29	X30	Y30	Z30	X31	Y31	Z31	X32	Y32	Z32	X33	Y33	Z33	X34	Y34	Z34	X35	Y35	Z35	X36	Y36	Z36	X37	Y37	Z37	X38	Y38	Z38	X39	Y39	Z39	X40	Y40	Z40	X41	Y41	Z41	X42	Y42	Z42	X43	Y43	Z43	X44	Y44	Z44	X45	Y45	Z45	X46	Y46	Z46	X47	Y47	Z47	X48	Y48	Z48	

76	0.5	708.8614501953125	102.7070465087891	1034.65283203125	735.0537109375	121.9923248291016	1117.464111328125	831.6143798828125	1063.905151367188	1125.727661132813	767.02099609375	977.154052734375	1062.964965820313	639.4403076171875	41.33525466918945	1077.967041015625	668.7786254882813	61.48031234741211	1039.52978515625	649.906005859375	87.68668365478516	1080.181884765625	712.781982421875	481.4566040039063	1033.916381835938	750.359619140625	1126.081909179688	1073.602661132813	725.1038208007813	553.1567993164063	1046.314086914063	716.6687622070313	529.2232055664063	1164.344116210938	860.7000732421875	53.48798751831055	1126.31396484375	872.49267578125	69.56496429443359	1082.886962890625	834.9331665039063	45.13991928100586	1010.444946289063	647.39013671875	1079.948120117188	1173.918334960938	714.4414672851563	178.8209838867188	1030.445434570313	672.1116333007813	171.4694671630859	1058.2763671875	697.6084594726563	257.9609375	1019.502136230469	655.3604736328125	254.7589416503906	1050.63427734375	735.2945556640625	713.0892944335938	1031.448120117188	674.3043212890625	714.1217041015625	1069.373291015625	734.7025146484375	823.3766479492188	1033.799926757813	679.3707275390625	824.3240356445313	1073.763061523438	771.7722778320313	462.809326171875	1081.553100585938	698.5405883789063	105.0515670776367	1420.128540039063	731.3616943359375	123.0897216796875	1339.986938476563	826.5426025390625	1068.044311523438	1341.29345703125	747.3114013671875	970.45068359375	1402.85009765625	632.3436279296875	40.72398376464844	1373.813232421875	662.153076171875	58.50066375732422	1416.94287109375	642.5597534179688	87.89823913574219	1373.408935546875	725.7826538085938	492.9398803710938	1416.5703125	740.0513305664063	1139.839721679688	1380.070678710938	727.5989379882813	558.9036865234375	1409.820678710938	742.12451171875	538.7652587890625	1291.6767578125	854.3370971679688	53.92170333862305	1331.197631835938	862.9808349609375	71.02608489990234	1376.105834960938	829.0424194335938	47.40178680419922	1447.183227539063	644.923583984375	1086.133178710938	1282.635620117188	708.362060546875	185.6713409423828	1426.324829101563	662.2338256835938	184.7755432128906	1395.222045898438	698.0951538085938	265.6528015136719	1437.222778320313	653.7047119140625	264.1066589355469	1406.206420898438	716.2730712890625	681.447265625	1418.330322265625	667.2208251953125	676.0422973632813	1363.62744140625	705.1448974609375	790.5405883789063	1413.316772460938	660.4884643554688	785.6201171875	1360.60791015625	779.6178588867188	464.7801818847656	1371.113159179688	
77	0.5066666666666667	708.862548828125	102.7051162719727	1034.656005859375	735.0283813476563	121.8767623901367	1117.520385742188	831.6170043945313	1063.899658203125	1125.729370117188	767.0216064453125	977.1539306640625	1062.948974609375	639.4376220703125	41.33753204345703	1077.956909179688	668.7728271484375	61.47460556030273	1039.513671875	649.9116821289063	87.68058013916016	1080.18310546875	712.7776489257813	481.4566040039063	1033.922729492188	750.3665161132813	1126.0908203125	1073.594116210938	725.0895385742188	553.1514282226563	1046.316162109375	716.6671752929688	529.21875	1164.340576171875	860.6957397460938	53.49695587158203	1126.325561523438	872.4989624023438	69.55979919433594	1082.893676757813	834.9254760742188	45.14212799072266	1010.438049316406	647.4046020507813	1079.950317382813	1173.920166015625	714.4440307617188	178.8235473632813	1030.44482421875	672.1062622070313	171.4700469970703	1058.272827148438	697.614013671875	257.9569396972656	1019.498413085938	655.3516845703125	254.7552490234375	1050.645263671875	735.2885131835938	713.1047973632813	1031.4326171875	674.301513671875	714.1287841796875	1069.368774414063	734.7020874023438	823.3782958984375	1033.79443359375	679.37548828125	824.315673828125	1073.751220703125	771.7776489257813	462.8033752441406	1081.562622070313	698.5537109375	105.0495300292969	1420.135498046875	731.3593139648438	123.0913391113281	1339.972778320313	826.547607421875	1068.041870117188	1341.288208007813	747.3155517578125	970.4545288085938	1402.850341796875	632.341064453125	40.71823120117188	1373.821411132813	662.1495971679688	58.50991439819336	1416.946533203125	642.5507202148438	87.91217041015625	1373.41259765625	725.7980346679688	492.9432067871094	1416.5732421875	740.061767578125	1139.842529296875	1380.058349609375	727.6124877929688	558.9052124023438	1409.818115234375	742.1207885742188	538.7728271484375	1291.67431640625	854.3262329101563	53.92266845703125	1331.195922851563	862.9745483398438	71.02014923095703	1376.104736328125	829.05126953125	47.41043472290039	1447.181762695313	644.9282836914063	1086.136108398438	1282.618286132813	708.3594970703125	185.6738891601563	1426.322143554688	662.2374877929688	184.775390625	1395.221435546875	698.0995483398438	265.6574096679688	1437.221557617188	653.7117919921875	264.1070251464844	1406.21435546875	716.288818359375	681.4454956054688	1418.325073242188	667.2286376953125	676.03466796875	1363.613159179688	705.1572875976563	790.5391235351563	1413.31298828125	660.4857177734375	785.6160888671875	1360.611083984375	779.6371459960938	464.7799377441406	1371.104614257813	
78	0.5133333333333334	708.8577880859375	102.6970977783203	1034.651489257813	735.0297241210938	121.8837890625	1117.500610351563	831.6351928710938	1063.892456054688	1125.71240234375	767.0230102539063	977.156982421875	1062.946533203125	639.4346923828125	41.33963012695313	1077.956665039063	668.7747192382813	61.46989440917969	1039.512451171875	649.9076538085938	87.68004608154297	1080.177612304688	712.790283203125	481.455322265625	1033.925903320313	750.3760375976563	1126.080078125	1073.59228515625	725.1029052734375	553.1452026367188	1046.317138671875	716.6679077148438	529.2197875976563	1164.333251953125	860.6907958984375	53.48027801513672	1126.3115234375	872.4943237304688	69.55448913574219	1082.889892578125	834.9288940429688	45.1381721496582	1010.441711425781	647.4098510742188	1079.95458984375	1173.91455078125	714.4281005859375	178.8186950683594	1030.4404296875	672.1095581054688	171.4656982421875	1058.2822265625	697.6063232421875	257.9523315429688	1019.499633789063	655.3485717773438	254.7566528320313	1050.624389648438	735.3057250976563	713.0990600585938	1031.431762695313	674.3011474609375	714.127197265625	1069.373291015625	734.7020263671875	823.3716430664063	1033.800537109375	679.374755859375	824.312744140625	1073.75439453125	771.77294921875	462.8050537109375	1081.551147460938	698.550537109375	105.0581283569336	1420.143310546875	731.3536376953125	123.0871810913086	1339.979614257813	826.5513916015625	1068.04296875	1341.285034179688	747.32958984375	970.4484252929688	1402.840454101563	632.3395385742188	40.72908782958984	1373.812866210938	662.1419067382813	58.50936126708984	1416.947021484375	642.5595703125	87.90895080566406	1373.40576171875	725.8118286132813	492.9407653808594	1416.573486328125	740.0614013671875	1139.8349609375	1380.059814453125	727.6196899414063	558.906982421875	1409.81103515625	742.1378784179688	538.7745971679688	1291.674926757813	854.3018798828125	53.80441665649414	1331.44384765625	862.9742431640625	71.02205657958984	1376.113403320313	829.0441284179688	47.40469360351563	1447.179321289063	644.94287109375	1086.135498046875	1282.628540039063	708.3663940429688	185.6703338623047	1426.319946289063	662.23583984375	184.7810516357422	1395.214721679688	698.1142578125	265.65185546875	1437.22216796875	653.7159423828125	264.1065063476563	1406.207397460938	716.3045654296875	681.4404296875	1418.3212890625	667.2423706054688	676.025390625	1363.619018554688	705.1737670898438	790.53955078125	1413.314697265625	660.5055541992188	785.6051025390625	1360.613159179688	779.6406860351563	464.7759704589844	1371.10693359375	
79	0.52	708.86328125	102.7021942138672	1034.647338867188	735.0540161132813	121.9893798828125	1117.466186523438	831.639892578125	1063.905151367188	1125.70751953125	767.0335083007813	977.1578369140625	1062.952880859375	639.4453125	41.34032440185547	1077.963500976563	668.7720336914063	61.47989273071289	1039.52880859375	649.9078979492188	87.68003845214844	1080.179565429688	712.7682495117188	481.454833984375	1033.920288085938	750.3837280273438	1126.084228515625	1073.57421875	725.0940551757813	553.1532592773438	1046.306396484375	716.673583984375	529.2241821289063	1164.33203125	860.6810913085938	53.48604965209961	1126.31640625	872.484619140625	69.55823516845703	1082.891479492188	834.9212036132813	45.14291000366211	1010.440673828125	647.4308471679688	1079.960693359375	1173.9140625	714.4349975585938	178.8160705566406	1030.4345703125	672.1064453125	171.4609985351563	1058.26904296875	697.5984497070313	257.9602661132813	1019.497436523438	655.3478393554688	254.7593841552734	1050.634765625	735.2965087890625	713.0936889648438	1031.42431640625	674.2987060546875	714.1292114257813	1069.371704101563	734.6991577148438	823.3837280273438	1033.790161132813	679.376220703125	824.3218383789063	1073.756958007813	771.7623901367188	462.8047180175781	1081.551147460938	698.548583984375	105.055534362793	1420.143676757813	731.3553466796875	123.0971832275391	1339.98388671875	826.5587768554688	1068.050170898438	1341.288330078125	747.3307495117188	970.4686889648438	1402.847778320313	632.3377075195313	40.71903610229492	1373.812866210938	662.1517333984375	58.50957870483398	1416.939575195313	642.5568237304688	87.91193389892578	1373.40869140625	725.81689453125	492.9415588378906	1416.563842773438	740.076171875	1139.849487304688	1380.057495117188	727.6318969726563	558.9017333984375	1409.817626953125	742.1500244140625	538.7575073242188	1291.670043945313	854.3236083984375	53.9273681640625	1331.196899414063	862.9757080078125	71.02073669433594	1376.108764648438	829.0496215820313	47.41227340698242	1447.187744140625	644.9532470703125	1086.141723632813	1282.607788085938	708.3665771484375	185.6777191162109	1426.323974609375	662.2437133789063	184.7826385498047	1395.222534179688	698.1221923828125	265.6567687988281	1437.22607421875	653.7178955078125	264.1077270507813	1406.213500976563	716.3202514648438	681.443115234375	1418.326416015625	667.2559814453125	676.0228881835938	1363.612670898438	705.1861572265625	790.5352783203125	1413.293090820313	660.5186767578125	785.6009521484375	1360.617431640625	779.65185546875	464.7771606445313	1371.106201171875	
